
<svg viewBox="0 0 256 256" className="w-6 h-6">
  <defs>
    <linearGradient id="vsGradient" x1="0%" y1="0%" x2="100%" y2="100%">
      <stop offset="0%" stopColor="#0065A9" />
      <stop offset="100%" stopColor="#007ACC" />
    </linearGradient>
  </defs>
  <path
      d="M181.534 254.252a15.934 15.934 0 0 0 11.67-.886l46.021-23.85c4.345-2.254 7.775-7.775 7.775-13.42V39.904c0-5.645-3.43-11.166-7.775-13.42L193.204 2.634a15.939 15.939 0 0 0-18.61 2.478L81.844 92.31 31.94 53.088a10.655 10.655 0 0 0-13.01.56L5.716 64.265c-3.805 3.492-3.805 9.448 0 12.94l42.537 39.652L5.716 156.51c-3.805 3.492-3.805 9.448 0 12.94l13.214 10.617a10.655 10.655 0 0 0 13.01.56l49.904-39.222 92.75 87.198a15.939 15.939 0 0 0 6.94 1.649z"
      fill="url(#vsGradient)"
  />
</svg>